<?xml version="1.0" encoding="UTF-8"?>
<!DOCTYPE svg PUBLIC "-//W3C//DTD SVG 1.1//EN" "http://www.w3.org/Graphics/SVG/1.1/DTD/svg11.dtd">
<svg xmlns="http://www.w3.org/2000/svg" version="1.1" width="103px" height="111px" style="shape-rendering:geometricPrecision; text-rendering:geometricPrecision; image-rendering:optimizeQuality; fill-rule:evenodd; clip-rule:evenodd" xmlns:xlink="http://www.w3.org/1999/xlink">
<g><path style="opacity:1" fill="#0cc6cc" d="M -0.5,-0.5 C 33.8333,-0.5 68.1667,-0.5 102.5,-0.5C 102.5,36.5 102.5,73.5 102.5,110.5C 68.1667,110.5 33.8333,110.5 -0.5,110.5C -0.5,73.5 -0.5,36.5 -0.5,-0.5 Z"/></g>
<g><path style="opacity:1" fill="#8bb95b" d="M 50.5,11.5 C 51.0968,10.8614 51.9302,10.528 53,10.5C 54.3756,10.6842 55.2089,11.3509 55.5,12.5C 53.9582,11.6993 52.2915,11.366 50.5,11.5 Z"/></g>
<g><path style="opacity:1" fill="#f9ac04" d="M 50.5,11.5 C 52.2915,11.366 53.9582,11.6993 55.5,12.5C 60.7965,14.7659 62.6298,18.7659 61,24.5C 55.7338,28.7608 51.2338,28.0941 47.5,22.5C 47.2641,19.3915 47.5975,16.3915 48.5,13.5C 48.8333,12.5 49.5,11.8333 50.5,11.5 Z"/></g>
<g><path style="opacity:1" fill="#f5ad0a" d="M 75.5,13.5 C 84.83,13.9191 86.9967,18.2525 82,26.5C 79.2997,29.057 76.1331,29.8903 72.5,29C 68.1587,22.8712 69.1587,17.7045 75.5,13.5 Z"/></g>
<g><path style="opacity:1" fill="#f3ad0f" d="M 27.5,18.5 C 35.0334,18.0568 39.7001,21.3901 41.5,28.5C 40.769,31.5506 38.769,33.2173 35.5,33.5C 29.4473,32.9393 25.7807,29.7726 24.5,24C 24.6846,21.6241 25.6846,19.7908 27.5,18.5 Z"/></g>
<g><path style="opacity:1" fill="#aeb62c" d="M 48.5,13.5 C 47.5975,16.3915 47.2641,19.3915 47.5,22.5C 46.8418,21.2067 46.5085,19.7067 46.5,18C 46.5687,16.0145 47.2353,14.5145 48.5,13.5 Z"/></g>
<g><path style="opacity:1" fill="#fcfefe" d="M 55.5,32.5 C 69.2218,31.4644 79.7218,36.7977 87,48.5C 92.8759,58.7763 97.2093,69.7763 100,81.5C 100.828,85.8713 100.661,90.2047 99.5,94.5C 91.6669,100.699 85.3335,99.3657 80.5,90.5C 71.5161,100.332 60.5161,103.499 47.5,100C 36.1677,93.8642 33.8343,85.3642 40.5,74.5C 43.9939,71.1756 47.6606,68.009 51.5,65C 57.8065,62.5134 63.8065,59.5134 69.5,56C 67.6075,50.9466 63.9408,48.4466 58.5,48.5C 56.5,48.6667 54.5,48.8333 52.5,49C 48.2171,51.6153 44.2171,54.6153 40.5,58C 32.1727,60.0026 28.6727,56.836 30,48.5C 36.1313,39.2012 44.6313,33.8678 55.5,32.5 Z"/></g>
<g><path style="opacity:1" fill="#f1ae10" d="M 12.5,34.5 C 18.0916,34.0866 23.0916,35.5866 27.5,39C 29.975,45.2039 27.8083,48.0372 21,47.5C 15.0228,48.0855 11.1895,45.5855 9.5,40C 9.61322,37.6013 10.6132,35.7679 12.5,34.5 Z"/></g>
<g><path style="opacity:1" fill="#27cbd2" d="M 69.5,69.5 C 73.5493,69.8705 75.5493,72.2038 75.5,76.5C 75.1667,77.5 74.8333,78.5 74.5,79.5C 69.6803,83.5415 64.3469,84.7082 58.5,83C 57.2532,81.5421 57.2532,80.0421 58.5,78.5C 61.8953,75.0985 65.562,72.0985 69.5,69.5 Z"/></g>
</svg>
